<?xml version="1.0" standalone="no"?>
<!DOCTYPE svg PUBLIC "-//W3C//DTD SVG 20010904//EN"
 "http://www.w3.org/TR/2001/REC-SVG-20010904/DTD/svg10.dtd">
<svg version="1.0" xmlns="http://www.w3.org/2000/svg"
 width="192.000000pt" height="192.000000pt" viewBox="0 0 192.000000 192.000000"
 preserveAspectRatio="xMidYMid meet">

<g transform="translate(0.000000,192.000000) scale(0.100000,-0.100000)"
fill="#000000" stroke="none">
<path d="M930 1865 c-10 -13 -9 -29 9 -88 24 -83 27 -174 7 -241 -19 -63 0
-72 45 -22 38 44 67 53 108 32 34 -18 86 -100 96 -152 7 -40 31 -45 44 -11 6
16 4 45 -7 88 -11 43 -16 107 -16 197 l0 132 -57 0 c-48 0 -71 7 -135 40 -43
22 -78 40 -80 40 -1 0 -7 -7 -14 -15z m111 -95 c24 -11 63 -20 87 -20 l42 0 0
-90 c0 -49 -2 -90 -5 -90 -3 0 -19 10 -34 21 -29 21 -71 23 -111 5 -12 -5 -15
4 -15 56 0 35 -4 80 -8 101 -4 20 -6 37 -4 37 3 0 24 -9 48 -20z"/>
<path d="M430 1599 c-46 -10 -90 -60 -90 -102 0 -85 110 -246 304 -445 60 -61
107 -113 105 -115 -2 -1 -22 -12 -44 -23 -24 -13 -52 -40 -70 -69 -28 -45 -30
-55 -30 -139 1 -75 6 -102 27 -154 43 -104 89 -172 174 -259 102 -104 169
-139 250 -129 30 3 78 15 107 26 28 11 53 20 54 20 1 0 10 -14 18 -31 10 -19
16 -50 14 -82 -2 -41 1 -51 12 -49 25 6 30 19 30 74 0 60 -22 125 -45 134 -8
3 -40 -3 -70 -15 -95 -35 -148 -37 -208 -8 -108 53 -195 153 -275 314 -99 199
-60 333 102 350 190 20 429 -168 385 -302 -7 -21 -19 -35 -34 -39 -53 -13
-178 47 -233 111 -24 29 -53 26 -53 -6 0 -25 79 -94 146 -127 134 -66 231 -8
222 133 -3 52 -2 53 24 53 15 0 37 4 51 9 18 7 26 5 35 -9 18 -30 93 -36 142
-12 l40 19 6 -34 c10 -53 -4 -139 -31 -193 -14 -27 -51 -71 -85 -101 -33 -30
-60 -61 -60 -71 0 -24 7 -23 47 8 27 20 37 23 48 14 25 -21 38 -80 33 -156 -4
-57 -2 -74 8 -74 19 0 31 28 39 91 8 64 -6 125 -35 159 -11 13 -20 25 -20 26
0 2 16 24 35 50 50 65 68 137 61 238 -3 44 -6 86 -6 91 0 6 5 33 11 60 22 95
-14 173 -92 196 -31 10 -43 21 -60 56 -12 25 -34 50 -50 59 -27 13 -33 13 -60
0 -30 -15 -31 -15 -72 29 -47 48 -80 61 -120 46 -25 -10 -37 -29 -64 -100 -8
-21 -16 -13 -102 108 -131 184 -226 278 -332 329 -91 44 -134 53 -189 41z
m133 -69 c111 -42 243 -176 396 -405 66 -99 90 -143 97 -182 6 -29 8 -53 5
-53 -3 0 -33 11 -66 25 -33 13 -87 27 -119 31 l-60 7 -112 113 c-231 234 -355
422 -308 468 22 22 102 20 167 -4z m625 -382 c45 -47 62 -96 62 -178 0 -71
-16 -128 -47 -162 -15 -17 -17 -16 -47 8 -16 15 -31 34 -31 43 0 9 -9 43 -19
75 -14 44 -17 79 -14 137 7 114 36 138 96 77z m190 -98 c28 -56 30 -149 4
-200 -20 -42 -75 -80 -112 -80 -15 0 -33 -7 -40 -15 -28 -34 -19 -5 14 44 42
62 61 143 52 223 -8 69 -3 80 32 76 21 -2 33 -14 50 -48z m125 -96 c36 -36 43
-92 19 -147 -23 -51 -63 -73 -117 -63 -38 7 -43 17 -21 35 23 20 53 92 61 149
8 59 20 65 58 26z"/>
</g>
</svg>
